<?xml version="1.0" encoding="UTF-8"?>
<!DOCTYPE svg PUBLIC "-//W3C//DTD SVG 1.1//EN" "http://www.w3.org/Graphics/SVG/1.1/DTD/svg11.dtd">
<!-- Creator: CorelDRAW X8 -->
<svg xmlns="http://www.w3.org/2000/svg" xml:space="preserve" width="170.872mm" height="42.1732mm" version="1.1" style="shape-rendering:geometricPrecision; text-rendering:geometricPrecision; image-rendering:optimizeQuality; fill-rule:evenodd; clip-rule:evenodd"
viewBox="0 0 74620 18417"
 xmlns:xlink="http://www.w3.org/1999/xlink">
 <defs>
  <style type="text/css">
   <![CDATA[
    .fil0 {fill:#1C1C1B;fill-rule:nonzero}
   ]]>
  </style>
 </defs>
 <g id="Слой_x0020_1">
  <metadata id="CorelCorpID_0Corel-Layer"/>
  <path class="fil0" d="M5762 11498l2675 0 0 2392c0,1458 -360,2576 -1080,3357 -721,780 -1767,1170 -3139,1170 -1371,0 -2417,-390 -3138,-1170 -720,-781 -1080,-1899 -1080,-3357l0 -9363c0,-1458 360,-2576 1080,-3357 721,-780 1767,-1170 3138,-1170 1372,0 2418,390 3139,1170 720,781 1080,1899 1080,3357l0 1749 -2675 0 0 -1929c0,-1183 -489,-1775 -1466,-1775 -978,0 -1467,592 -1467,1775l0 9723c0,1166 489,1749 1467,1749 977,0 1466,-583 1466,-1749l0 -2572zm11215 -1003l0 7716 -2830 0 0 -18005 2830 0 0 7716 3215 0 0 -7716 2881 0 0 18005 -2881 0 0 -7716 -3215 0zm12140 7716l0 -18005 2830 0 0 18005 -2830 0zm15331 0l-2753 -7176 -874 1646 0 5530 -2830 0 0 -18005 2830 0 0 7845 3704 -7845 2829 0 -3935 8025 3935 9980 -2906 0zm10597 -13864l0 9723c0,1183 489,1775 1466,1775 978,0 1467,-592 1467,-1775l0 -9723c0,-1183 -489,-1775 -1467,-1775 -977,0 -1466,592 -1466,1775zm-2829 9543l0 -9363c0,-1440 368,-2555 1106,-3344 737,-789 1800,-1183 3189,-1183 1389,0 2453,394 3190,1183 737,789 1106,1904 1106,3344l0 9363c0,1440 -369,2555 -1106,3344 -737,789 -1801,1183 -3190,1183 -1389,0 -2452,-394 -3189,-1183 -738,-789 -1106,-1904 -1106,-3344zm14044 -9363c0,-1458 352,-2576 1055,-3357 703,-780 1740,-1170 3112,-1170 1372,0 2409,390 3112,1170 704,781 1055,1899 1055,3357l0 566 -2675 0 0 -746c0,-1183 -472,-1775 -1415,-1775 -943,0 -1415,592 -1415,1775 0,497 103,969 309,1415 206,446 472,849 798,1209 325,360 685,716 1080,1067 394,352 784,720 1170,1106 386,386 742,798 1068,1235 326,437 591,956 797,1556 206,600 309,1252 309,1955 0,1458 -360,2576 -1081,3357 -720,780 -1766,1170 -3138,1170 -1371,0 -2418,-390 -3138,-1170 -720,-781 -1080,-1899 -1080,-3357l0 -1106 2675 0 0 1286c0,1166 489,1749 1466,1749 978,0 1466,-583 1466,-1749 0,-669 -188,-1299 -566,-1891 -377,-591 -836,-1127 -1376,-1607 -540,-480 -1084,-982 -1633,-1505 -549,-523 -1012,-1175 -1389,-1955 -377,-780 -566,-1642 -566,-2585z"/>
 </g>
</svg>
